<svg width="257" height="304" viewBox="0 0 257 304" fill="none" xmlns="http://www.w3.org/2000/svg">
<path d="M1 40.0344C1.57911 29.6104 14.029 23.9833 21.5336 18.8738C37.5029 8.00112 54.4588 3.35602 73.5731 3.35602C88.0899 3.35602 99.3135 8.01105 108.841 19.1873C111.423 22.2169 113.42 25.1052 114.954 28.7488C115.14 29.191 115.352 32.4617 116.365 30.9432C131.048 8.91822 169.808 -10.4911 193.405 9.07722C212.763 25.1303 218.902 54.7907 204.142 74.9886C200.389 80.1249 203.755 77.1738 209.942 79.064C229.788 85.1281 242.996 106.445 249.833 124.677C255.185 138.949 260.575 165.618 247.56 177.657C237.136 187.299 223.896 186.538 211.509 190.667C207.789 191.907 216.786 209.604 217.465 213.003C220.596 228.657 221.133 245.334 214.566 260.183C205.894 279.789 193.167 299.448 170.285 302.426C159.576 303.82 148.824 302.406 138.779 298.507C136.43 297.596 134.703 296.783 132.196 296.783" stroke="#FFA500" stroke-width="2" stroke-linecap="round"/>
</svg>
